 <svg  version="1.0" xmlns="http://www.w3.org/2000/svg"  width="300.000000pt" height="300.000000pt" viewBox="0 0 300.000000 300.000000"  preserveAspectRatio="xMidYMid meet">  <g transform="translate(0.000000,300.000000) scale(0.050000,-0.050000)" fill="#fafafa" stroke="none"> <path d="M2593 4989 c-1762 -332 -2456 -2507 -1204 -3776 1207 -1225 3284 -707 3761 938 460 1588 -941 3143 -2557 2838z m518 -54 c11 -6 87 -14 170 -17 82 -3 160 -14 173 -23 13 -10 33 -13 43 -7 11 7 23 2 27 -10 4 -13 32 -23 62 -23 30 0 54 -9 54 -19 0 -11 11 -15 25 -11 14 5 51 -9 84 -32 32 -22 52 -30 43 -17 -8 13 -5 24 7 24 11 0 21 -15 21 -32 0 -28 5 -29 34 -5 23 18 29 19 19 2 -10 -16 -4 -25 17 -25 18 0 46 -13 63 -30 16 -16 47 -30 68 -30 23 0 39 -14 39 -32 0 -28 5 -29 31 -7 26 21 30 21 25 -3 -4 -17 7 -26 29 -22 24 4 35 -7 35 -36 0 -25 9 -37 21 -29 12 7 43 -11 70 -40 27 -29 58 -48 69 -41 11 7 20 -2 20 -20 0 -18 8 -27 18 -21 10 6 23 -3 29 -19 7 -17 25 -30 41 -30 16 0 36 -10 44 -23 10 -16 5 -18 -14 -7 -15 9 19 -30 77 -88 58 -57 105 -113 105 -124 0 -11 9 -15 20 -8 11 7 20 3 20 -8 0 -11 17 -37 38 -56 21 -20 42 -49 45 -65 7 -30 26 -59 71 -109 13 -15 19 -33 12 -40 -7 -6 -2 -12 12 -12 13 0 19 -8 13 -18 -6 -11 2 -32 18 -48 16 -16 24 -35 17 -42 -7 -6 -2 -12 12 -12 13 0 19 -8 13 -18 -6 -11 2 -32 18 -48 22 -22 23 -34 5 -54 -14 -15 -15 -21 -2 -14 26 15 94 -120 75 -150 -8 -13 -4 -16 9 -9 13 9 22 -4 22 -32 2 -104 5 -115 27 -102 14 9 17 2 9 -20 -7 -18 -3 -33 9 -33 14 0 11 -13 -6 -34 -18 -23 -19 -29 -2 -19 14 9 25 8 25 -2 0 -9 -11 -29 -25 -44 -20 -21 -20 -24 0 -13 14 8 25 7 25 -3 0 -9 -11 -29 -25 -44 -20 -21 -20 -24 0 -13 14 8 25 7 25 -3 0 -9 -11 -29 -25 -44 -20 -21 -20 -24 0 -13 14 8 25 7 25 -3 0 -9 -11 -29 -25 -44 -14 -15 -16 -22 -5 -16 13 7 21 -22 20 -74 0 -61 -7 -83 -26 -76 -18 7 -19 17 -4 35 16 19 15 29 -4 37 -20 8 -19 15 4 32 27 20 27 22 0 17 -16 -3 -32 1 -35 9 -3 8 -37 46 -75 84 -39 38 -70 83 -70 100 0 17 -7 29 -15 26 -23 -7 -105 70 -105 98 0 14 -10 31 -23 39 -15 9 -18 5 -7 -12 11 -17 8 -21 -7 -12 -13 8 -23 27 -23 42 0 15 -10 34 -23 42 -15 9 -18 5 -7 -12 11 -17 8 -21 -7 -12 -13 8 -23 27 -23 42 0 15 -10 34 -23 42 -16 10 -18 5 -7 -14 9 -15 -8 -6 -37 20 -29 27 -53 59 -53 70 -1 12 -25 45 -54 72 -29 28 -46 37 -37 22 12 -19 10 -24 -6 -14 -13 8 -23 28 -23 44 0 17 -8 25 -19 19 -10 -7 -28 4 -39 24 -12 19 -21 28 -21 19 -1 -8 -20 2 -43 24 -52 48 -121 42 -202 -17 -34 -26 -54 -34 -45 -19 9 16 -16 1 -56 -32 -39 -33 -73 -71 -74 -85 0 -14 -14 -25 -29 -25 -15 0 -33 -13 -39 -30 -22 -57 -45 -30 -42 50 3 70 -57 240 -84 240 -5 0 -4 -11 3 -25 7 -14 1 -11 -14 7 -37 45 -141 94 -174 83 -17 -6 -22 -1 -14 12 8 13 5 23 -7 23 -11 0 -21 -9 -21 -20 0 -11 -10 -20 -21 -20 -12 0 -16 9 -9 20 7 11 3 20 -9 20 -11 0 -21 -9 -21 -20 0 -11 -10 -20 -21 -20 -12 0 -15 11 -7 24 9 13 -15 2 -52 -24 -37 -26 -60 -35 -50 -19 9 16 -10 7 -42 -21 -59 -51 -94 -95 -84 -105 3 -3 -14 -33 -38 -67 -25 -34 -40 -68 -33 -74 6 -7 -2 -26 -20 -44 -17 -17 -27 -43 -21 -59 6 -15 1 -33 -11 -40 -12 -8 -16 -22 -10 -32 6 -11 2 -19 -10 -19 -11 0 -21 -14 -21 -31 0 -17 -17 -64 -37 -105 -21 -41 -33 -85 -29 -99 5 -14 -1 -25 -14 -25 -12 0 -17 -9 -10 -20 7 -11 3 -20 -9 -20 -11 0 -21 -18 -21 -40 0 -22 -9 -40 -19 -40 -11 0 -15 -13 -8 -30 6 -16 3 -30 -6 -30 -10 0 -29 -19 -44 -42 -14 -23 -16 -36 -4 -29 32 20 25 -11 -12 -52 -22 -25 -25 -37 -9 -37 17 0 14 -10 -7 -32 -17 -17 -26 -40 -19 -51 6 -11 -5 -39 -25 -62 -20 -23 -26 -35 -12 -27 14 8 25 6 25 -5 0 -11 -9 -23 -20 -26 -11 -4 -25 -29 -30 -56 -5 -26 -20 -55 -34 -63 -14 -9 -19 -22 -11 -30 7 -7 3 -32 -10 -56 -13 -23 -24 -46 -25 -52 -1 -5 -13 -30 -26 -55 -14 -25 -19 -45 -12 -45 7 0 3 -12 -9 -27 -31 -37 -43 -158 -18 -188 11 -14 13 -25 4 -25 -9 0 1 -14 22 -31 22 -18 26 -25 9 -17 -16 9 -7 -9 20 -38 28 -29 62 -53 76 -54 15 0 20 -10 12 -23 -9 -15 -5 -18 12 -7 16 10 36 2 54 -22 24 -33 30 -34 46 -8 15 24 19 24 20 3 0 -23 6 -23 30 -3 24 20 30 20 30 0 0 -20 6 -20 30 0 24 20 30 20 30 -1 0 -17 15 -12 43 13 28 24 38 27 27 8 -9 -16 26 13 79 65 52 52 96 107 99 123 2 15 15 42 30 59 14 17 28 47 32 67 4 20 9 41 11 46 2 6 3 17 1 25 -1 8 8 15 19 15 12 0 17 7 12 16 -6 8 12 58 38 110 26 52 42 94 36 94 -7 0 -2 12 10 27 13 15 17 33 9 40 -7 7 -4 13 7 13 11 0 21 11 22 25 5 56 18 93 43 122 14 17 21 39 15 48 -5 9 12 59 38 111 26 52 42 94 36 94 -7 0 -1 14 13 30 14 17 18 30 10 30 -8 0 -5 12 7 27 13 15 17 33 9 40 -7 7 -2 13 12 13 13 0 19 8 13 19 -6 10 -2 24 9 31 11 7 16 20 11 29 -6 9 7 39 29 66 21 27 33 55 26 62 -15 16 32 73 61 73 13 0 10 -9 -7 -20 -27 -18 -14 -29 26 -22 10 2 12 -5 6 -15 -6 -10 11 -42 39 -72 27 -30 44 -62 38 -72 -6 -11 3 -19 20 -19 17 0 31 -10 31 -23 0 -13 33 -53 74 -89 95 -85 97 -115 13 -204 -125 -133 -140 -152 -107 -134 17 9 10 -5 -14 -32 -80 -89 -120 -226 -80 -275 12 -15 24 -40 26 -56 7 -41 254 -282 281 -273 13 5 30 -3 38 -16 10 -16 7 -19 -11 -8 -17 11 -21 8 -12 -7 8 -13 24 -18 36 -11 11 7 28 1 38 -14 15 -24 17 -24 18 0 0 22 9 20 40 -8 39 -35 41 -35 82 2 23 21 46 36 50 33 21 -13 49 -3 38 15 -7 11 -4 20 7 20 10 0 76 55 146 123 70 68 114 116 99 107 -19 -11 -23 -9 -14 7 8 13 24 23 37 23 12 0 61 41 109 91 54 56 96 85 111 76 15 -9 13 1 -4 24 -16 22 -22 32 -12 24 20 -17 116 80 102 103 -5 9 18 42 51 74 45 43 57 48 46 20 -11 -29 -8 -35 12 -22 19 12 21 9 8 -12 -15 -24 -22 -101 -29 -323 -1 -19 -10 -35 -21 -35 -11 0 -15 -9 -7 -21 7 -11 2 -33 -10 -48 -12 -15 -21 -34 -19 -44 5 -21 -16 -80 -55 -152 -16 -30 -24 -64 -17 -75 7 -11 3 -20 -8 -20 -11 0 -31 -19 -43 -42 -16 -30 -16 -39 -1 -29 36 22 25 -5 -19 -46 -23 -21 -44 -51 -46 -66 -2 -15 -19 -49 -38 -77 -19 -27 -35 -59 -35 -71 0 -12 -20 -41 -45 -64 -94 -90 -152 -161 -141 -173 7 -6 2 -12 -12 -12 -13 0 -18 -10 -10 -23 9 -14 5 -18 -8 -9 -13 7 -80 -43 -155 -117 -74 -72 -143 -125 -154 -118 -12 7 -15 4 -8 -8 7 -11 -3 -33 -21 -48 -23 -18 -29 -19 -19 -2 24 40 0 29 -58 -25 -30 -27 -62 -44 -72 -38 -10 6 -16 0 -12 -13 3 -13 -12 -26 -32 -30 -20 -3 -54 -22 -75 -41 -21 -19 -38 -27 -38 -19 0 9 -23 1 -51 -18 -27 -18 -59 -27 -70 -21 -10 7 -19 4 -19 -7 0 -10 -14 -24 -31 -31 -20 -7 -26 -3 -17 11 17 27 -24 7 -77 -39 -25 -21 -35 -23 -35 -6 0 17 -10 14 -31 -7 -38 -37 -57 -41 -36 -6 9 14 -9 9 -38 -10 -30 -19 -61 -35 -69 -35 -9 0 -2 9 14 20 18 12 21 20 6 20 -13 0 -33 -16 -45 -35 -18 -31 -23 -31 -40 -5 -15 23 -20 23 -21 3 0 -14 -11 -22 -25 -17 -14 5 -42 0 -62 -11 -28 -14 -34 -13 -23 5 11 18 5 19 -23 5 -20 -10 -62 -16 -92 -13 -39 4 -52 -2 -42 -18 10 -16 4 -15 -17 2 -18 14 -37 18 -44 8 -12 -21 -96 -16 -134 7 -16 10 -19 7 -9 -10 12 -19 7 -20 -22 -6 -20 11 -73 17 -117 15 -97 -6 -134 6 -117 37 8 14 2 13 -14 -2 -34 -31 -66 -33 -47 -2 8 13 3 18 -14 12 -15 -5 -45 -1 -65 10 -28 14 -34 13 -23 -5 11 -18 5 -19 -25 -3 -22 12 -45 16 -52 9 -7 -7 -13 -2 -13 10 0 13 -14 17 -33 10 -22 -8 -29 -5 -20 9 8 13 -1 23 -22 24 -76 2 -105 8 -105 24 0 9 -15 10 -33 3 -21 -8 -29 -5 -20 9 7 11 -1 26 -18 33 -18 6 -26 3 -19 -8 7 -11 -1 -14 -19 -8 -17 7 -27 19 -22 27 6 8 -13 26 -41 38 -30 14 -45 15 -38 3 7 -12 -8 -11 -38 3 -28 12 -47 30 -41 38 5 8 -5 20 -22 27 -19 7 -26 3 -18 -10 10 -15 1 -15 -29 1 -23 12 -42 27 -42 33 0 6 10 4 23 -4 14 -9 18 -5 9 9 -8 13 -27 23 -42 23 -16 0 -48 20 -72 45 -24 25 -37 32 -28 15 16 -31 15 -30 -102 76 -22 20 -56 43 -75 50 -18 7 -31 20 -28 28 3 9 -1 16 -8 16 -23 0 -116 95 -108 109 5 7 0 26 -10 42 -16 25 -19 25 -21 -1 -1 -16 -9 -7 -17 20 -8 28 -26 48 -39 45 -14 -4 -20 3 -13 13 6 11 2 25 -9 32 -11 7 -17 19 -12 27 5 8 0 28 -11 44 -17 23 -18 21 -8 -9 10 -32 7 -34 -19 -12 -16 14 -30 38 -30 54 0 15 -9 23 -20 16 -11 -7 -20 6 -20 27 0 22 -15 56 -34 74 -19 19 -37 53 -41 76 -3 23 -16 48 -29 56 -13 7 -25 29 -28 47 -3 18 -21 51 -40 72 -24 27 -27 38 -8 38 19 0 17 10 -7 37 -18 20 -27 42 -20 49 7 7 2 26 -11 41 -13 16 -22 36 -20 46 1 9 1 24 -2 32 -11 33 -15 57 -18 96 -1 23 -11 36 -22 29 -12 -7 -17 13 -12 49 4 34 1 65 -6 70 -6 4 -11 116 -10 250 1 134 -7 248 -17 254 -11 7 -8 19 8 29 20 13 20 17 2 18 -14 0 -25 10 -25 21 0 12 9 16 19 10 11 -7 16 14 11 52 -4 36 -1 75 8 86 9 12 18 37 20 56 2 19 5 52 7 74 2 21 11 34 19 28 9 -5 16 -5 16 0 0 5 5 26 12 46 10 31 8 32 -10 7 -12 -16 -21 -21 -21 -10 1 48 60 101 79 70 14 -22 18 -18 16 20 -2 28 -12 62 -23 76 -13 17 -11 33 7 50 20 19 23 19 12 -1 -8 -14 -7 -36 2 -50 9 -14 17 -60 19 -103 2 -51 -3 -68 -15 -50 -11 18 -17 20 -18 4 0 -13 10 -30 21 -37 12 -7 17 -26 11 -41 -6 -15 -1 -28 11 -28 12 0 16 -14 10 -30 -7 -17 3 -47 22 -67 137 -143 131 -126 129 -347 -2 -113 -4 -210 -6 -216 -1 -5 -2 -17 0 -25 1 -8 -8 -15 -20 -15 -12 0 -17 -14 -10 -31 6 -17 5 -27 -3 -22 -8 4 -40 -18 -71 -49 -31 -32 -50 -58 -41 -58 8 0 4 -11 -9 -24 -31 -31 -32 -289 -1 -308 15 -9 18 -5 7 12 -11 17 -8 21 7 12 13 -8 19 -23 13 -32 -15 -24 113 -140 155 -140 19 0 35 -10 35 -22 0 -12 14 -17 31 -10 18 6 26 3 19 -8 -14 -22 16 -28 36 -7 28 28 257 23 268 -6 8 -21 17 -23 38 -5 21 17 28 17 28 -2 0 -20 6 -20 30 0 24 20 30 20 30 0 0 -20 6 -20 30 0 24 20 30 20 30 0 0 -20 6 -20 30 0 24 20 30 20 30 -2 0 -19 6 -20 22 -4 13 13 37 18 54 11 22 -9 26 -4 13 17 -14 24 -12 24 18 0 27 -22 34 -23 29 -3 -3 14 7 31 22 36 17 6 22 1 14 -12 -23 -38 -1 -26 40 20 25 29 28 39 8 29 -16 -8 -13 -1 9 17 21 17 31 31 22 31 -9 0 -4 14 10 32 29 34 37 72 46 203 5 80 53 174 53 105 0 -21 6 -22 22 -6 13 13 34 19 47 14 14 -6 36 4 50 21 31 37 69 41 51 6 -7 -14 1 -8 17 12 18 22 41 31 55 22 14 -9 19 -7 11 6 -7 11 1 26 18 33 21 8 27 3 17 -13 -7 -14 46 33 118 103 73 71 128 136 122 145 -6 9 4 11 21 5 17 -7 31 -2 31 10 0 12 -10 22 -23 22 -15 0 -13 12 6 35 75 88 5 565 -91 629 -12 8 -22 26 -22 40 0 14 -13 26 -30 26 -16 0 -30 14 -30 30 0 17 -12 30 -26 30 -14 0 -32 9 -40 20 -29 41 -111 101 -96 70 8 -16 1 -13 -17 9 -17 21 -31 31 -31 21 0 -10 -10 -8 -22 4 -13 13 -37 18 -54 11 -20 -8 -26 -4 -16 12 17 28 16 28 -318 32 -144 2 -272 10 -285 18 -15 9 -25 5 -25 -8 0 -18 -8 -18 -30 1 -24 20 -30 20 -30 0 0 -20 -6 -20 -30 0 -22 18 -30 19 -30 2 0 -17 -11 -18 -37 -3 -21 11 -43 15 -49 9 -18 -19 -114 -23 -102 -5 16 26 -20 20 -51 -8 -22 -20 -24 -20 -11 3 18 32 -16 16 -75 -34 -22 -19 -35 -22 -35 -7 0 13 11 23 23 23 13 0 18 6 10 13 -7 8 -54 -28 -103 -80 -49 -51 -94 -93 -99 -93 -25 0 10 189 38 205 18 9 27 26 20 36 -6 11 -2 19 8 19 20 0 47 59 38 82 -9 21 49 78 67 67 10 -6 12 3 6 20 -7 17 -4 31 5 31 10 0 29 19 44 42 21 35 21 40 -1 29 -14 -8 -6 4 19 26 25 22 45 45 45 51 0 20 79 92 100 92 11 0 20 9 20 19 0 30 180 204 181 175 0 -13 14 1 31 32 16 30 38 50 48 44 9 -6 31 9 49 34 17 25 31 38 31 31 0 -8 23 5 52 30 28 25 60 45 70 45 11 0 28 14 38 30 11 17 20 23 20 14 0 -9 14 -3 32 15 17 17 39 26 50 20 10 -6 18 -1 18 11 0 12 9 17 20 10 11 -7 20 -2 20 11 0 13 12 18 28 13 15 -6 49 4 75 22 45 32 78 44 132 49 14 1 25 10 25 20 0 9 8 12 18 6 9 -6 28 2 40 16 12 15 47 25 77 22 30 -4 63 1 75 11 12 10 46 15 76 11 29 -3 54 2 54 10 0 9 40 14 90 11 49 -2 98 1 108 7 25 15 208 12 233 -4z m545 -1309 c4 -24 -7 -70 -24 -102 -28 -55 -115 -278 -399 -1024 -222 -586 -191 -540 -371 -554 l-142 -11 0 52 c0 29 23 104 51 167 82 184 229 560 229 586 0 13 28 88 63 167 62 141 222 558 286 745 16 47 300 23 307 -26z m940 -424 c189 -197 344 -365 344 -374 0 -16 -679 -713 -707 -725 -20 -9 -293 257 -293 284 0 11 94 115 210 232 l209 212 -209 209 c-116 115 -210 218 -210 229 0 27 264 291 291 291 12 0 176 -161 365 -358z m-2271 272 c196 -90 276 -218 281 -449 6 -317 -218 -485 -646 -485 l-200 0 0 -69 c0 -68 1 -69 95 -75 l95 -6 6 -155 6 -155 -146 -1 c-80 -1 -252 -4 -382 -7 -273 -5 -265 -10 -264 178 l0 140 84 6 c105 8 111 35 102 484 l-6 310 -60 2 c-113 3 -110 -1 -110 167 0 130 6 159 33 165 119 23 1043 -18 1112 -50z m288 -761 c-57 -96 -77 -115 -163 -149 -49 -19 -52 -19 -20 1 75 47 190 176 203 230 8 30 18 43 22 30 5 -14 -14 -64 -42 -112z m2427 18 c0 -23 -664 -729 -702 -747 -7 -3 -27 16 -44 43 -31 47 -30 49 22 59 79 16 620 570 636 651 13 65 88 59 88 -6z m-3020 -671 c0 -51 -8 -60 -50 -60 -27 0 -50 4 -50 9 0 9 83 104 95 109 3 1 5 -25 5 -58z m1081 -139 c-13 -23 -42 -41 -66 -41 -42 0 -41 3 15 55 64 59 86 53 51 -14z"/> <path d="M1783 3162 c-17 -11 -23 -58 -19 -144 l6 -128 165 -6 c239 -8 358 130 205 237 -54 38 -314 67 -357 41z"/> </g> </svg> 